<svg xmlns="http://www.w3.org/2000/svg" viewBox="0 0 100 100"><path d="M35,96c-3.133,0-5.82-2.236-6.392-5.316L21.669,38l-0.781-0.326 c-2.044,0,1.693-2.135,0.472-3.775c-1.221-1.644-7.673-2.31-7.085-4.267l3-10C18.104,16.862,20.606,15,23.5,15h2.171l0.955-0.774 C27.231,11.198,29.912,9,33,9h38c3.088,0,1.395,1.972,2,5l5.329,1H80.5c2.894,0,5.396,1.862,6.227,4.634l2.999,9.998 c0.587,1.958,0.21,4.105-1.009,5.746C87.493,37.021,85.544,38,83.5,38h-1.191l-6.94,52.797C74.756,93.811,72.078,96,69,96H35z" opacity=".35"/><path fill="#f2f2f2" d="M33,94c-3.133,0-5.82-2.236-6.392-5.316L19.669,36H18.5c-2.044,0-3.993-0.979-5.214-2.619 c-1.221-1.644-1.599-3.792-1.011-5.749l3-10C16.104,14.862,18.606,13,21.5,13h3.028l0.098-0.774C25.231,9.198,27.912,7,31,7h38 c3.088,0,5.769,2.198,6.374,5.226L75.494,13H78.5c2.894,0,5.396,1.862,6.227,4.634l2.999,9.998c0.587,1.958,0.21,4.105-1.009,5.746 C85.493,35.021,83.544,36,81.5,36h-1.191l-6.94,52.797C72.756,91.811,70.078,94,67,94H33z"/><polygon fill="#d47f56" points="70.5,19.5 28.5,19.5 30.5,13.5 68.5,13.5"/><polygon fill="#d47f56" points="80.5,26.5 80.5,29.5 20,30 20,26 21.5,19.5 78,19"/><polygon fill="#ffe8d9" points="67,87.5 33,87.5 25,28 75,28"/><polyline fill="none" stroke="#40396e" stroke-linecap="round" stroke-linejoin="round" stroke-miterlimit="10" stroke-width="3" points="75,29.5 81.5,29.5 78.5,19.5 71,19.5 69,13.5 31,13.5 29,19.5 21.5,19.5 18.5,29.5 25,29.5"/><polyline fill="none" stroke="#40396e" stroke-linecap="round" stroke-linejoin="round" stroke-miterlimit="10" stroke-width="3" points="75,29.5 67,87.5 33,87.5 25,29.5"/><rect width="51.699" height="3" x="24.014" y="28" fill="#40396e" opacity=".35"/><path fill="#ff7575" d="M42.983,51.022c0,0-1.074,4.982,2.193,4.982c3.034,0,2.796-2.71,2.796-3.381 c0-2.022-0.978-3.576-0.978-5.607c0-2.264,1.635-5.017,3.478-5.017c0.289,7.185,11.522,9.931,11.522,18.519 c0,7.424-4.904,12.481-12,12.481c-7.011,0-12-4.989-12-13.353C37.994,52.199,42.983,51.022,42.983,51.022z"/><path fill="#fff" d="M47.287,63.071c0,0-0.975,2.927,0.971,2.927c1.389,0,1.314-1.9,1.314-2.203 c0-0.914-0.448-1.589-0.448-2.718c0-1.121,0.702-2.081,1.593-2.081c0.132,3.246,5.277,4.487,5.277,8.367 c0,3.354-2.246,5.639-5.496,5.639c-3.211,0-5.496-2.254-5.496-6.033C45.002,64.025,47.287,63.071,47.287,63.071z"/></svg>