<svg xmlns="http://www.w3.org/2000/svg" viewBox="0 0 100 100"><path d="M37.087,100c-6.527,0-12.003-5.1-12.468-11.609l-3.77-52.779C18.533,34.092,17,31.472,17,28.5v-6	c0-4.687,3.813-8.5,8.5-8.5H41V8.5C41,4.916,43.916,2,47.5,2h9C60.084,2,63,4.916,63,8.5V14h15.499c2.27,0,4.404,0.884,6.01,2.489	c1.609,1.61,2.492,3.746,2.49,6.018l-0.004,5.998c-0.001,2.967-1.532,5.583-3.844,7.103l-3.77,52.782	C78.917,94.9,73.44,100,66.913,100H37.087z" opacity=".35"/><path fill="#f2f2f2" d="M35.087,98c-6.527,0-12.003-5.1-12.468-11.609l-3.77-52.779C16.533,32.092,15,29.472,15,26.5v-6	c0-4.687,3.813-8.5,8.5-8.5H39V6.5C39,2.916,41.916,0,45.5,0h9C58.084,0,61,2.916,61,6.5V12h15.499c2.27,0,4.404,0.884,6.01,2.489	c1.609,1.61,2.492,3.746,2.49,6.018l-0.004,5.998c-0.001,2.967-1.532,5.583-3.844,7.103l-3.77,52.782	C76.917,92.9,71.44,98,64.913,98H35.087z"/><path fill="#d9eeff" d="M24.5,22.5l4.597,63.434c0.227,3.137,2.839,5.566,5.984,5.566h29.838	c3.145,0,5.757-2.429,5.984-5.566L75.5,22.5H24.5z"/><path fill="#40396e" d="M47,27v11h6V27H47z" opacity=".35"/><path fill="#ffb789" d="M70.903,85.934L74.377,38H25.623l3.473,47.934c0.227,3.137,2.839,5.566,5.984,5.566h29.838	C68.065,91.5,70.676,89.071,70.903,85.934z"/><path fill="#70bfff" d="M23.5,18.5c-1.105,0-2,0.895-2,2V25c0,1.105,0.895,2,2,2h53c1.105,0,2-0.895,2-2v-4.5	c0-1.105-0.895-2-2-2H23.5z"/><path fill="#2785bd" d="M45.5,7.5V20h9V7.5c0-0.552-0.448-1-1-1h-7C45.948,6.5,45.5,6.948,45.5,7.5z"/><circle cx="50" cy="81" r="4" fill="#d47f56"/><circle cx="62" cy="80.5" r="4" fill="#d47f56"/><circle cx="44" cy="71.5" r="4" fill="#d47f56"/><circle cx="56" cy="71" r="4" fill="#d47f56"/><circle cx="38" cy="80.5" r="4" fill="#d47f56"/><path fill="#40396e" d="M64.913,93H35.087c-3.916,0-7.202-3.06-7.481-6.966L23.604,30H23.5c-1.93,0-3.5-1.57-3.5-3.5v-6	c0-1.93,1.57-3.5,3.5-3.5H44V6.5C44,5.671,44.671,5,45.5,5h9C55.329,5,56,5.671,56,6.5V17h20.499c0.935,0,1.814,0.364,2.476,1.026	c0.661,0.661,1.025,1.541,1.024,2.476l-0.004,6C79.994,28.431,78.424,30,76.495,30h-0.099l-4.002,56.034	C72.115,89.94,68.829,93,64.913,93z M23.5,20c-0.276,0-0.5,0.224-0.5,0.5v6c0,0.276,0.224,0.5,0.5,0.5H25	c0.787,0,1.44,0.608,1.496,1.393l4.102,57.428C30.766,88.164,32.737,90,35.087,90h29.826c2.35,0,4.321-1.836,4.489-4.179	l4.102-57.428C73.56,27.608,74.213,27,75,27h1.495c0.275,0,0.5-0.224,0.5-0.5l0,0l0.004-6c0-0.18-0.092-0.299-0.146-0.354	S76.679,20,76.499,20H54.5c-0.829,0-1.5-0.671-1.5-1.5V8h-6v10.5c0,0.829-0.671,1.5-1.5,1.5H23.5z"/></svg>