<svg xmlns="http://www.w3.org/2000/svg" baseProfile="basic" viewBox="0 0 100 100"><path d="M16.942,36.142l-1.998,9.994C14.312,49.297,15.705,52.248,18,54.5c2.523,2.472,5.206,4.527,8,7	c-0.082,0.093-0.539,0.909-0.615,1.007c-0.442-0.095-0.893-0.157-1.353-0.157c-1.162,0-2.306,0.313-3.31,0.906	c-1.494,0.885-2.555,2.299-2.985,3.981s-0.18,3.433,0.705,4.925c3.854,6.503,9.463,11.716,16.21,15.07	c0.896,0.448,1.9,0.686,2.903,0.686c2.486,0,4.718-1.383,5.819-3.604c0.482-0.967,0.711-2.015,0.682-3.066	c0.909-0.5,1.688-1.212,2.272-2.083c7.063,5.42,12.991,9.673,15.852,11.696c1.612,1.14,3.506,1.742,5.476,1.742	c2.535,0,4.922-0.99,6.719-2.788l15.438-15.438c3.282-3.28,3.723-8.409,1.047-12.195c-2.023-2.862-6.278-8.792-11.699-15.857	c0.871-0.578,1.576-1.363,2.084-2.294c0.058,0.002,0.114,0.012,0.172,0.012c1.003,0,2.007-0.237,2.894-0.681	c1.555-0.773,2.716-2.105,3.268-3.752c0.553-1.646,0.431-3.41-0.343-4.962c-3.359-6.757-8.572-12.366-15.075-16.22	c-1.003-0.594-2.148-0.908-3.313-0.908c-2.285,0-4.429,1.222-5.592,3.185c-0.841,1.419-1.102,3.069-0.758,4.672	c-0.097,0.076-0.185,0.163-0.278,0.244C59.5,25,56.973,20.023,54.5,17.5c-1.795-1.829-3.922-2.742-6.487-2.742	c-0.629,0-1.26,0.063-1.876,0.186l-9.995,1.999l-2.701-2.707c-1.981-1.988-4.62-3.084-7.434-3.086c-2.804,0-5.44,1.093-7.424,3.075	l-4.357,4.357c-1.985,1.985-3.078,4.624-3.076,7.436c0.004,2.806,1.863,5.5,3.851,7.482L16.942,36.142z" opacity=".35"/><path fill="#f2f2f2" d="M14.942,34.142l-1.998,9.994c-0.633,3.161,0.358,6.391,2.653,8.643	c2.523,2.472,5.232,4.971,8.026,7.444c-0.082,0.093-0.162,0.187-0.238,0.284c-0.442-0.095-0.893-0.157-1.353-0.157	c-1.162,0-2.306,0.313-3.31,0.906c-1.494,0.885-2.555,2.299-2.985,3.981s-0.18,3.433,0.705,4.925	c3.854,6.503,9.463,11.716,16.21,15.07c0.896,0.448,1.9,0.686,2.903,0.686c2.486,0,4.718-1.383,5.819-3.604	c0.482-0.967,0.711-2.015,0.682-3.066c0.909-0.5,1.688-1.212,2.272-2.083c7.063,5.42,12.991,9.673,15.852,11.696	c1.612,1.14,3.506,1.742,5.476,1.742c2.535,0,4.922-0.99,6.719-2.788l15.438-15.438c3.282-3.28,3.723-8.409,1.047-12.195	c-2.023-2.862-6.278-8.792-11.699-15.857c0.871-0.578,1.576-1.363,2.084-2.294c0.058,0.002,0.114,0.012,0.172,0.012	c1.003,0,2.007-0.237,2.894-0.681c1.555-0.773,2.716-2.105,3.268-3.752c0.553-1.646,0.431-3.41-0.343-4.962	c-3.359-6.757-8.572-12.366-15.075-16.22c-1.003-0.594-2.148-0.908-3.313-0.908c-2.285,0-4.429,1.222-5.592,3.185	c-0.841,1.419-1.102,3.069-0.758,4.672c-0.097,0.076-0.185,0.163-0.278,0.244c-2.474-2.795-4.973-5.505-7.446-8.028	c-1.795-1.829-4.197-2.837-6.763-2.837c-0.629,0-1.26,0.063-1.876,0.186l-9.995,1.999l-2.701-2.707	c-1.981-1.988-4.62-3.084-7.434-3.086c-2.804,0-5.44,1.093-7.424,3.075l-4.357,4.357c-1.985,1.985-3.078,4.624-3.076,7.436	c0.004,2.806,1.099,5.441,3.086,7.424L14.942,34.142z"/><path fill="#9ba7c5" d="M45.411,19.318L32,22l-5.161-5.175c-1.561-1.566-4.097-1.567-5.661-0.004L19,19l-2.178,2.178	c-1.564,1.564-1.562,4.099,0.004,5.661L22,32l-2.682,13.411c-0.198,0.991,0.108,2.017,0.83,2.725	c15.127,14.824,37.027,30.64,43.787,35.417c1.193,0.843,2.813,0.699,3.846-0.334L83.22,67.78c1.033-1.033,1.177-2.653,0.334-3.846	c-4.778-6.76-20.593-28.661-35.417-43.787C47.428,19.425,46.403,19.119,45.411,19.318z"/><path fill="#d9eeff" d="M41.833,25.167L25.167,41.833c9.201,8.851,39.621,33.595,45.773,38.227l9.212-9.212	C75.514,64.703,50.686,34.366,41.833,25.167z" opacity=".35"/><path fill="#40396e" d="M27.689,17.675c-1.561-1.566-4.097-1.567-5.661-0.004L19.85,19.85l-2.178,2.178	c-1.564,1.564-1.562,4.099,0.004,5.661l5.175,5.161l10-10L27.689,17.675z" opacity=".35"/><polygon fill="#d9eeff" points="32.5,22.5 22.5,32.5 19.5,47.5 47.5,19.5"/><path fill="#40396e" d="M65.657,85.604c-0.9,0-1.806-0.271-2.589-0.825c-6.459-4.565-28.719-20.624-43.971-35.571	c-1.083-1.063-1.551-2.592-1.251-4.09l2.524-12.623l-4.605-4.593c-1.041-1.039-1.614-2.421-1.616-3.891	c-0.001-1.471,0.571-2.854,1.611-3.894l4.357-4.356c1.039-1.039,2.42-1.611,3.889-1.611c0.001,0,0.002,0,0.003,0	c1.471,0.001,2.853,0.575,3.891,1.616l4.594,4.605l12.623-2.524l0,0c1.496-0.3,3.026,0.167,4.089,1.25	C64.154,34.35,80.213,56.609,84.778,63.068c1.266,1.791,1.057,4.219-0.498,5.772L68.841,84.28	C67.967,85.154,66.815,85.604,65.657,85.604z M24.007,17.149c-0.668,0-1.295,0.261-1.768,0.732l-4.357,4.356	c-0.473,0.473-0.732,1.102-0.732,1.771c0.001,0.668,0.262,1.296,0.735,1.769l5.175,5.16c0.355,0.355,0.51,0.864,0.411,1.356	l-2.683,13.411c-0.101,0.502,0.053,1.01,0.41,1.36c15.092,14.79,37.189,30.73,43.603,35.264c0.593,0.419,1.401,0.349,1.919-0.17	L82.159,66.72c0.518-0.519,0.59-1.325,0.17-1.919c-4.533-6.413-20.474-28.511-35.265-43.604c-0.35-0.355-0.857-0.51-1.359-0.409	l-13.411,2.683c-0.491,0.099-1.002-0.057-1.356-0.411l-5.161-5.175C25.305,17.411,24.677,17.15,24.007,17.149L24.007,17.149z"/><path fill="#40396e" d="M79.419,37.044c-0.551,0-1.082-0.305-1.344-0.832c-2.674-5.374-6.82-9.835-11.991-12.9	c-0.713-0.422-0.948-1.342-0.525-2.055c0.423-0.714,1.343-0.947,2.055-0.525c5.67,3.36,10.217,8.251,13.147,14.145	c0.369,0.741,0.067,1.642-0.675,2.011C79.871,36.994,79.644,37.044,79.419,37.044z"/><path fill="#40396e" d="M73.568,40.428c-0.607,0-1.18-0.372-1.405-0.976c-1.535-4.111-4.512-7.533-8.379-9.634	c-0.729-0.396-0.998-1.307-0.603-2.034c0.396-0.729,1.307-0.996,2.034-0.603c4.504,2.446,7.969,6.432,9.758,11.222	c0.29,0.775-0.104,1.64-0.881,1.93C73.92,40.397,73.743,40.428,73.568,40.428z"/><path fill="#40396e" d="M35.556,80.918c-0.225,0-0.452-0.05-0.667-0.157c-5.894-2.931-10.784-7.478-14.145-13.147	c-0.423-0.713-0.188-1.633,0.525-2.055c0.712-0.421,1.632-0.188,2.055,0.525c3.065,5.171,7.526,9.317,12.9,11.991	c0.742,0.369,1.044,1.27,0.675,2.011C36.638,80.613,36.106,80.918,35.556,80.918z"/><path fill="#40396e" d="M38.94,75.068c-0.175,0-0.352-0.03-0.524-0.095c-4.79-1.789-8.775-5.254-11.222-9.758	c-0.396-0.728-0.126-1.639,0.603-2.034c0.728-0.394,1.639-0.127,2.034,0.603c2.101,3.867,5.522,6.844,9.634,8.379	c0.776,0.29,1.171,1.154,0.881,1.93C40.12,74.696,39.548,75.068,38.94,75.068z"/></svg>