<svg xmlns="http://www.w3.org/2000/svg" viewBox="0 0 100 100"><g id="Слой_2"><path d="M91.882,30.577l-9.883-10.706C81.93,13.865,77.022,9,71,9H57c-6.065,0-11,4.935-11,11v0.28l-8.34,10.843 C36.591,32.506,36,34.241,36,36v7.844c-0.925-0.121-1.849-0.182-2.763-0.182c-2.366,0-4.608,0.402-6.67,1.194 C15.617,47.763,8,57.642,8,69c0,13.785,11.215,25,25,25c3.347,0,6.708-0.689,9.793-2H81c0.825,0,1.665-0.083,2.497-0.246 c0.307-0.059,0.629-0.14,0.991-0.25c0.388-0.107,0.839-0.239,1.351-0.446c0.331-0.132,0.675-0.293,1.063-0.499 c0.012-0.006,0.024-0.012,0.036-0.018c0.372-0.188,0.682-0.362,0.977-0.547c0.48-0.302,0.859-0.595,1.177-0.845 c0.229-0.181,0.447-0.364,0.651-0.55c0.355-0.32,0.722-0.699,1.097-1.135c0.158-0.185,0.288-0.342,0.406-0.496 c0.352-0.45,0.692-0.954,0.997-1.482c0.018-0.031,0.035-0.062,0.052-0.093l0.113-0.206c0.009-0.016,0.017-0.032,0.026-0.048 c0.329-0.615,0.599-1.226,0.823-1.868c0.014-0.041,0.028-0.083,0.042-0.125l0.029-0.091C93.78,81.687,94,80.361,94,79V36 C94,33.986,93.248,32.06,91.882,30.577z" opacity=".35"/><path fill="#f2f2f2" d="M89.882,28.577l-9.883-10.706C79.93,11.865,75.022,7,69,7H55c-6.065,0-11,4.935-11,11v0.28l-8.34,10.843 C34.591,30.506,34,32.241,34,34v7.844c-0.925-0.121-1.849-0.182-2.763-0.182c-2.366,0-4.608,0.402-6.67,1.194 C13.617,45.763,6,55.642,6,67c0,13.785,11.215,25,25,25c3.347,0,6.708-0.689,9.793-2H79c0.825,0,1.665-0.083,2.497-0.246 c0.307-0.059,0.629-0.14,0.991-0.25c0.388-0.107,0.839-0.239,1.351-0.446c0.331-0.132,0.675-0.293,1.063-0.499 c0.012-0.006,0.024-0.012,0.036-0.018c0.372-0.188,0.682-0.362,0.977-0.547c0.48-0.302,0.859-0.595,1.177-0.845 c0.229-0.181,0.447-0.364,0.651-0.55c0.355-0.32,0.722-0.699,1.097-1.135c0.158-0.185,0.288-0.342,0.406-0.496 c0.352-0.45,0.692-0.954,0.997-1.482c0.018-0.031,0.035-0.062,0.052-0.093l0.113-0.206c0.009-0.016,0.017-0.032,0.026-0.048 c0.329-0.615,0.599-1.226,0.823-1.868c0.014-0.041,0.028-0.083,0.042-0.125l0.029-0.091C91.78,79.687,92,78.361,92,77V34 C92,31.986,91.248,30.06,89.882,28.577z"/><path fill="#2785bd" d="M84,34H60v48h19c2.761,0,5-2.239,5-5V34z"/><polygon fill="#2b59a1" points="72,21 60,34 84,34"/><path fill="#2785bd" d="M60,82H47c-2.761,0-5-2.239-5-5V34l10-13h20L60,34V82z"/><polygon fill="#70bfff" points="42,34 60,34 72,21 52,21"/><path fill="#2785bd" d="M69,15H55c-1.657,0-3,1.343-3,3v3h20v-3C72,16.343,70.657,15,69,15z"/><path fill="#40396e" d="M84,34H60v48h19c2.761,0,5-2.239,5-5V34z" opacity=".35"/><path fill="#d9eeff" d="M79,82c2.504,0,4.56-1.847,4.924-4.25C76.152,67.383,63.531,67.74,60,67.792V82H79z"/><path fill="#fff" d="M55.729,67.394l-0.467-0.125c-1.915-0.51-3.251-2.24-3.261-4.222L51.949,59 c-0.454-5.49-4.6-9.923-9.949-10.823C42,48.177,27,82,26,82h34V67.792c-0.173,0.003-0.34,0.007-0.491,0.016 C58.236,67.879,56.96,67.723,55.729,67.394z"/><circle cx="31" cy="67" r="17" fill="#b35d26"/><ellipse cx="34.954" cy="62.879" fill="#d47f56" rx="11.26" ry="14.968" transform="rotate(-45.001 34.954 62.88)"/><ellipse cx="35.25" cy="62.75" fill="#f2f2f2" rx="8.132" ry="12.021" transform="rotate(-45.001 35.25 62.75)"/><ellipse cx="35.25" cy="62.75" fill="#70bfff" rx="4.596" ry="6.794" transform="rotate(-45.001 35.25 62.75)"/><polygon fill="#70bfff" points="37.859,68.54 39,73 31,79"/><polygon fill="#d47f56" points="31,79 43,75 39,73"/><polyline fill="#70bfff" points="35,66 35.382,72.31 38.35,67.75 35,66"/><polygon fill="#40396e" points="37.851,68.532 39.75,76.08 31,79" opacity=".35"/><path fill="#40396e" d="M31,87c-11.028,0-20-8.972-20-20c0-9.193,6.211-17.146,15.119-19.381c3.755-1.538,8.517-1.208,12.881,0.88V34 c0-0.658,0.221-1.309,0.623-1.829L49,19.98V18c0-3.309,2.691-6,6-6h14c3.309,0,6,2.691,6,6v1.827l11.204,12.138h0 C86.717,32.521,87,33.244,87,34v43c0,0.825-0.139,1.645-0.425,2.505l-0.037,0.114c-0.141,0.403-0.306,0.775-0.511,1.158 l-0.113,0.206c-0.188,0.326-0.396,0.635-0.619,0.92c-0.074,0.096-0.156,0.193-0.247,0.3c-0.243,0.282-0.461,0.508-0.683,0.708 c-0.116,0.106-0.242,0.21-0.37,0.312c-0.269,0.212-0.487,0.378-0.743,0.539c-0.183,0.115-0.374,0.218-0.567,0.315l-0.824-1.263 l0.702,1.325c-0.195,0.104-0.391,0.2-0.594,0.281c-0.298,0.12-0.577,0.199-0.878,0.281c-0.193,0.061-0.374,0.11-0.556,0.146 C80.021,84.948,79.504,85,79,85H39.714C37.01,86.31,34.005,87,31,87z M31.277,49.642c-1.482,0-2.863,0.266-4.104,0.788 c-0.073,0.031-0.149,0.057-0.226,0.075C19.324,52.371,14,59.153,14,67c0,9.374,7.626,17,17,17c2.658,0,5.315-0.636,7.684-1.838 C38.895,82.056,39.127,82,39.363,82H79c0.31,0,0.633-0.032,0.961-0.097c0.075-0.015,0.144-0.037,0.213-0.059 c0.009-0.003,0.088-0.026,0.098-0.029c0.218-0.06,0.392-0.104,0.578-0.179c0.108-0.043,0.208-0.095,0.308-0.147 c0.005-0.003,0.092-0.048,0.097-0.051c0.186-0.094,0.294-0.149,0.396-0.215c0.159-0.1,0.293-0.205,0.429-0.312 c0.125-0.099,0.197-0.157,0.267-0.22c0.142-0.129,0.275-0.269,0.423-0.44c0.054-0.062,0.106-0.125,0.156-0.19 c0.143-0.182,0.271-0.374,0.386-0.572l0.069-0.125c0.134-0.251,0.235-0.478,0.318-0.715C83.911,78.008,84,77.498,84,77V34 l1.102-1.018L84,34L72.398,21.432C72.142,21.154,72,20.791,72,20.414V18c0-1.654-1.346-3-3-3H55c-1.654,0-3,1.346-3,3v2.49 c0,0.331-0.109,0.652-0.311,0.915L42,34.001v17.051c0,0.549-0.3,1.054-0.781,1.316c-0.482,0.264-1.068,0.241-1.53-0.055 C37.011,50.591,34.023,49.642,31.277,49.642z"/></g></svg>