<svg xmlns="http://www.w3.org/2000/svg" viewBox="0 0 100 100"><path d="M71,23H32V7c0-2.761,2.239-5,5-5h29c2.761,0,5,2.239,5,5V23z" opacity=".35"/><path fill="#f2f2f2" d="M69,21H30V5c0-2.761,2.239-5,5-5h29c2.761,0,5,2.239,5,5V21z"/><path d="M30.5,99c-3.584,0-6.5-2.916-6.5-6.5c0-4.82,2.575-10.002,6.767-12.987 c-2.031-3.121-3.354-6.694-3.857-10.528l-5.849-42.601c-0.256-1.861,0.306-3.742,1.542-5.158C23.835,19.812,25.621,19,27.5,19h49 c1.879,0,3.665,0.812,4.9,2.229c1.233,1.414,1.795,3.294,1.539,5.157l-1.507,10.981C89.722,38.978,96,46.293,96,55.048 c0,12.483-10.24,20.049-21.275,21.751c-0.453,0.931-0.96,1.83-1.52,2.693C77.414,82.474,80,87.669,80,92.5 c0,3.584-2.916,6.5-6.5,6.5H30.5z" opacity=".35"/><path fill="#f2f2f2" d="M28.5,97c-3.584,0-6.5-2.916-6.5-6.5c0-4.82,2.575-10.002,6.767-12.987 c-2.031-3.121-3.354-6.694-3.857-10.528l-5.849-42.601c-0.256-1.861,0.306-3.742,1.542-5.158C21.835,17.812,23.621,17,25.5,17h49 c1.879,0,3.665,0.812,4.9,2.229c1.233,1.414,1.795,3.294,1.539,5.157l-1.507,10.981C87.722,36.978,94,44.293,94,53.048 c0,12.483-10.24,20.049-21.275,21.751c-0.453,0.931-0.96,1.83-1.52,2.693C75.414,80.474,78,85.669,78,90.5 c0,3.584-2.916,6.5-6.5,6.5H28.5z"/><path fill="#70bfff" d="M68.119,68.661c0.007,0,0.012,0.002,0.019,0.002c6.357,0,19.362-3.685,19.362-15.615 c0-6.357-5.154-11.511-11.511-11.511c-1.435,0-2.802,0.274-4.069,0.754L74.5,23.5h-49l5.854,42.64 c0.955,7.284,6.006,13.121,12.644,15.36H36.5c-4.418,0-8,4.582-8,9h43c0-4.418-3.582-9-8-9h-7.458 C61.87,79.517,66.456,74.741,68.119,68.661z M69.147,62.488l1.598-11.642c0.901-1.954,2.971-3.309,5.243-3.309 c3.039,0,5.511,2.472,5.511,5.511C81.5,60.068,72.78,61.982,69.147,62.488L69.147,62.488z"/><path fill="#70bfff" d="M75.989,41.537c-1.435,0-2.802,0.274-4.069,0.754L74.5,23.5h-49l5.854,42.64 C32.582,75.501,40.559,82.5,50,82.5c8.569,0,15.914-5.775,18.119-13.839c0.007,0,0.012,0.002,0.019,0.002 c6.357,0,19.362-3.685,19.362-15.615C87.5,46.69,82.346,41.537,75.989,41.537z M69.147,62.488L69.147,62.488l1.598-11.642 c0.901-1.954,2.971-3.309,5.243-3.309c3.039,0,5.511,2.472,5.511,5.511C81.5,60.068,72.78,61.982,69.147,62.488z"/><path fill="none" stroke="#40396e" stroke-linecap="round" stroke-linejoin="round" stroke-miterlimit="10" stroke-width="3" d="M44.511,6.539c-0.006,0,2,1.998,2,3.996c0,2.001-2,2.001-2,4.002s1.994,4.002,2,4.002"/><path fill="none" stroke="#40396e" stroke-linecap="round" stroke-linejoin="round" stroke-miterlimit="10" stroke-width="3" d="M52.511,6.539c-0.006,0,2,1.998,2,3.996c0,2.001-2,2.001-2,4.002s1.994,4.002,2,4.002"/><path fill="none" stroke="#40396e" stroke-linecap="round" stroke-linejoin="round" stroke-miterlimit="10" stroke-width="3" d="M60.511,6.539c-0.006,0,2,1.998,2,3.996c0,2.001-2,2.001-2,4.002s1.994,4.002,2,4.002"/><path fill="none" stroke="#40396e" stroke-linecap="round" stroke-linejoin="round" stroke-miterlimit="10" stroke-width="3" d="M36.511,6.539c-0.006,0,2,1.998,2,3.996c0,2.001-2,2.001-2,4.002s1.994,4.002,2,4.002"/><path fill="none" stroke="#40396e" stroke-linecap="round" stroke-linejoin="round" stroke-miterlimit="10" stroke-width="3" d="M69.147,62.488l1.598-11.642c0.901-1.954,2.971-3.309,5.243-3.309c3.039,0,5.511,2.472,5.511,5.511 C81.5,60.068,72.78,61.982,69.147,62.488L69.147,62.488z"/><path fill="#d47f56" d="M70.09,44.587L71.407,35H28.593l4.249,30.945C33.967,74.528,41.344,81,50,81 c7.766,0,14.622-5.237,16.672-12.735l0.302-1.104"/><path fill="none" stroke="#40396e" stroke-linecap="round" stroke-linejoin="round" stroke-miterlimit="10" stroke-width="3" d="M68.119,68.661c0.007,0,0.012,0.002,0.019,0.002c6.357,0,19.362-3.685,19.362-15.615c0-6.357-5.154-11.511-11.511-11.511 c-1.435,0-2.802,0.274-4.069,0.754L74.5,23.5h-49l5.854,42.64c0.955,7.284,6.006,13.121,12.644,15.36H36.5c-4.418,0-8,4.582-8,9h43 c0-4.418-3.582-9-8-9h-7.458C61.87,79.517,66.456,74.741,68.119,68.661z"/><line x1="38.304" x2="33.732" y1="65.36" y2="32.063" fill="none" stroke="#fff" stroke-linecap="round" stroke-linejoin="round" stroke-miterlimit="10" stroke-width="3"/></svg>