<svg xmlns="http://www.w3.org/2000/svg" viewBox="0 0 100 100"><path d="M38,96c-3.133,0-5.82-2.236-6.392-5.316L21.669,42H20.5c-2.044,0-3.993-0.979-5.214-2.619 c-1.221-1.644-1.599-3.792-1.011-5.749l3-10C18.104,20.862,20.606,19,23.5,19h2.171l0.955-4.774C27.231,11.198,29.912,9,33,9h38 c3.088,0,5.769,2.198,6.374,5.226L78.329,19H80.5c2.894,0,5.396,1.862,6.227,4.634l2.999,9.998c0.587,1.958,0.21,4.105-1.009,5.746 C87.493,41.021,85.544,42,83.5,42h-1.191l-9.94,48.797C71.756,93.811,69.078,96,66,96H38z" opacity=".35"/><path fill="#f2f2f2" d="M36,94c-3.133,0-5.82-2.236-6.392-5.316L19.669,40H18.5c-2.044,0-3.993-0.979-5.214-2.619 c-1.221-1.644-1.599-3.792-1.011-5.749l3-10C16.104,18.862,18.606,17,21.5,17h2.171l0.955-4.774C25.231,9.198,27.912,7,31,7h38 c3.088,0,5.769,2.198,6.374,5.226L76.329,17H78.5c2.894,0,5.396,1.862,6.227,4.634l2.999,9.998c0.587,1.958,0.21,4.105-1.009,5.746 C85.493,39.021,83.544,40,81.5,40h-1.191l-9.94,48.797C69.756,91.811,67.078,94,64,94H36z"/><polygon fill="#d9eeff" points="70.5,23.5 28.5,23.5 30.5,13.5 68.5,13.5"/><polygon fill="#d9eeff" points="80.5,30.5 80.5,33.5 20,34 20,30 21.5,23.5 78,23"/><polygon fill="#d9eeff" points="64,87.5 36,87.5 25,33.5 75,33.5"/><polygon fill="#407845" points="67,75 32,75 27,44 73,44"/><polyline fill="none" stroke="#40396e" stroke-linecap="round" stroke-linejoin="round" stroke-miterlimit="10" stroke-width="3" points="75,33.5 81.5,33.5 78.5,23.5 71,23.5 69,13.5 31,13.5 29,23.5 21.5,23.5 18.5,33.5 25,33.5"/><circle cx="50" cy="60" r="8" fill="#ffc571"/><polyline fill="none" stroke="#40396e" stroke-linecap="round" stroke-linejoin="round" stroke-miterlimit="10" stroke-width="3" points="75,33.5 64,87.5 36,87.5 25,33.5"/><rect width="50" height="3" x="25" y="32" fill="#40396e" opacity=".35"/></svg>