<svg xmlns="http://www.w3.org/2000/svg" viewBox="0 0 100 100"><g id="Слой_2"><path d="M84.445,65.008l-6.554-35.324c-0.28-1.663-1.054-3.162-2.238-4.344l-6.774-6.774C65.293,14.977,60.521,13,55.443,13 h-6.887c-5.078,0-9.849,1.977-13.436,5.566l-6.777,6.777c-1.181,1.178-1.955,2.678-2.233,4.334l-6.555,35.331 C13.144,65.243,8,70.532,8,77c0,6.617,5.383,12,12,12h64c6.617,0,12-5.383,12-12C96,70.532,90.856,65.243,84.445,65.008z" opacity=".35"/><path fill="#f2f2f2" d="M82.445,63.008l-6.554-35.324c-0.28-1.663-1.054-3.162-2.238-4.344l-6.774-6.774 C63.293,12.977,58.521,11,53.443,11h-6.887c-5.078,0-9.849,1.977-13.436,5.566l-6.777,6.777c-1.181,1.178-1.955,2.678-2.233,4.334 l-6.555,35.331C11.144,63.243,6,68.532,6,75c0,6.617,5.383,12,12,12h64c6.617,0,12-5.383,12-12 C94,68.532,88.856,63.243,82.445,63.008z"/><polygon fill="#18796e" points="69.467,29 30.533,29 22,73 78,73"/><path fill="#9ba7c5" d="M82,71H18c-2.209,0-4,1.791-4,4v0c0,2.209,1.791,4,4,4h64c2.209,0,4-1.791,4-4v0C86,72.791,84.209,71,82,71z"/><path fill="#27b0c1" d="M32,29l6.778-6.778C40.841,20.159,43.639,19,46.556,19h6.887c2.917,0,5.715,1.159,7.778,3.222L68,29H32z"/><path fill="#40396e" d="M82,82H18c-3.859,0-7-3.141-7-7s3.141-7,7-7h3.812l7.232-39.517c0.101-0.598,0.39-1.161,0.834-1.604 l6.778-6.778C39.3,17.456,42.816,16,46.557,16h6.887c3.74,0,7.257,1.456,9.899,4.101l6.778,6.778 c0.444,0.443,0.733,1.007,0.838,1.627L78.188,68H82c3.859,0,7,3.141,7,7S85.859,82,82,82z M18,71c-2.206,0-4,1.794-4,4 s1.794,4,4,4h64c2.206,0,4-1.794,4-4s-1.794-4-4-4h-5.062c-0.725,0-1.345-0.518-1.476-1.229l-7.458-40.746l-6.782-6.803 C59.145,20.145,56.383,19,53.443,19h-6.887c-2.939,0-5.701,1.145-7.778,3.222L32,29l-7.462,40.771 C24.407,70.482,23.787,71,23.062,71H18z"/><path fill="#f2f2f2" d="M32.002,67.5c-0.089,0-0.18-0.008-0.271-0.024c-0.814-0.148-1.355-0.929-1.207-1.744l6-33 c0.148-0.813,0.927-1.357,1.744-1.207c0.814,0.148,1.355,0.929,1.207,1.744l-6,33C33.344,66.992,32.713,67.5,32.002,67.5z"/></g></svg>