<svg xmlns="http://www.w3.org/2000/svg" viewBox="0 0 100 100"><path d="M27.086,95c-4.036,0-8.023-1.241-11.179-3.758c-6.281-5.01-8.299-13.238-5.549-20.311l12.452-30.02 C21.661,39.393,21,37.511,21,35.5c0-0.977,0.162-1.94,0.471-2.853l-8.498-12.726c-1.191-1.923-1.29-4.369-0.259-6.383 c1.026-2.01,3.068-3.362,5.326-3.522c0.016-0.001,3.204-0.226,8.491-0.226c9.996,0,29.509,0.844,47.881,6.497 c3.202,0.984,5.121,3.204,4.461,6.49l-0.802,4.01c5.661,1.037,10.544,4.811,12.923,10.195l7.149,16.181 c0.748,1.692,1.065,3.572,0.728,5.391c-0.564,3.04-2.507,5.473-5.235,6.678c-1.154,0.51-2.377,0.769-3.635,0.769 c-0.971,0-1.918-0.157-2.811-0.45l2.833,5.647c2.164,5.845,1.177,12.157-2.727,17.119C83.895,92.64,78.569,95,73.069,95L27.086,95z" opacity=".35"/><path fill="#f2f2f2" d="M25.086,93c-4.036,0-8.023-1.241-11.179-3.758c-6.281-5.01-8.299-13.238-5.549-20.311l12.452-30.02 C19.661,37.393,19,35.511,19,33.5c0-0.977,0.162-1.94,0.471-2.853l-8.498-12.726c-1.191-1.923-1.29-4.369-0.259-6.383 c1.026-2.01,3.068-3.362,5.326-3.522c0.016-0.001,3.204-0.226,8.491-0.226c9.996,0,29.509,0.844,47.881,6.497 c3.202,0.984,5.121,3.204,4.461,6.49l-0.802,4.01c5.661,1.037,10.544,4.811,12.923,10.195l7.149,16.181 c0.748,1.692,1.065,3.572,0.728,5.391c-0.564,3.04-2.507,5.473-5.235,6.678c-1.154,0.51-2.377,0.769-3.635,0.769 c-0.971,0-1.918-0.157-2.811-0.45l2.833,5.647c2.164,5.845,1.177,12.157-2.727,17.119C81.895,90.64,76.569,93,71.069,93L25.086,93z"/><path fill="#70bfff" d="M71.457,86.5H24.823c-7.854,0-13.253-7.893-10.407-15.213L29.5,34.5l-13-20c0,0,28-2,54,6l-3,14 l14.428,36.956C84.629,78.749,79.234,86.5,71.457,86.5z"/><path fill="#70bfff" d="M71.457,86.5H24.823c-7.854,0-13.253-7.893-10.407-15.213L29.5,34.5l-13-20c0,0,28-2,54,6l-3,14 l14.428,36.956C84.629,78.749,79.234,86.5,71.457,86.5z"/><path fill="#d47f56" d="M71.018,44H25.806L14.416,71.287C11.57,78.607,16.969,86.5,24.823,86.5h46.634 c7.777,0,13.172-7.751,10.471-15.044L71.018,44z"/><path fill="none" stroke="#40396e" stroke-linecap="round" stroke-linejoin="round" stroke-miterlimit="10" stroke-width="3" d="M71.457,86.5H24.823c-7.854,0-13.253-7.893-10.407-15.213L29.5,34.5l-13-20c0,0,28-2,54,6l-3,14l14.428,36.956 C84.629,78.749,79.234,86.5,71.457,86.5z"/><path fill="none" stroke="#fff" stroke-linecap="round" stroke-linejoin="round" stroke-miterlimit="10" stroke-width="3" d="M21.872,74.187l15.084-36.787c0.911-2.341,0.668-4.974-0.654-7.11l-5.512-8.904"/><path fill="none" stroke="#40396e" stroke-linecap="round" stroke-linejoin="round" stroke-miterlimit="10" stroke-width="8" d="M28,33.5h44.903c3.402,0,6.484,2.008,7.859,5.12L88,55"/></svg>