<svg xmlns="http://www.w3.org/2000/svg" viewBox="0 0 100 100"><path d="M36.5,98c-3.564,0-6.587-4.14-8.5-7c-3.97-1.51-7-3.034-7-7.5V29.425 c0-3.818,1.045-5.562,3.024-8.827c0.125-0.206,0.256-0.398,0.398-0.583l1.345-1.769C25.268,17.081,25,15.811,25,14.5 C25,9.262,29.262,5,34.5,5h35c5.238,0,9.5,4.262,9.5,9.5c0,1.323-0.272,2.606-0.781,3.779l1.425,1.896 c0.123,0.16,0.258,0.361,0.383,0.57C81.97,23.983,83,25.701,83,29.487V83.5c0,4.466-2.792,8.306-6.763,9.816 C74.324,96.176,71.064,98,67.5,98H36.5z" opacity=".35"/><path fill="#f2f2f2" d="M34.5,96c-3.564,0-6.824-1.824-8.737-4.684C21.792,89.806,19,85.966,19,81.5V29.425 c0-3.818,1.045-7.562,3.024-10.827c0.125-0.206,0.256-0.398,0.398-0.583l1.345-1.769C23.268,15.081,23,13.811,23,12.5 C23,7.262,27.262,3,32.5,3h35c5.238,0,9.5,4.262,9.5,9.5c0,1.323-0.272,2.606-0.781,3.779l1.425,1.896 c0.123,0.16,0.258,0.361,0.383,0.57C79.97,21.983,81,25.701,81,29.487V81.5c0,4.466-2.792,8.306-6.763,9.816 C72.324,94.176,69.064,96,65.5,96H34.5z"/><path fill="#707cc0" d="M68,14l4.449,8.081c1.342,2.237,2.051,4.797,2.051,7.406v45.378V81.5c0,2.209-1.791,4-4,4h-41 c-2.209,0-4-1.791-4-4v-5.961V29.425c0-2.63,0.72-5.209,2.083-7.459L32,14H68z"/><path fill="#d9eeff" d="M68,14H33c-1.657,0-3.5,0.157-3.5-1.5v0c0-1.657,1.343-3,3-3h35c1.657,0,3,1.343,3,3v0 C70.5,14.157,69.657,14,68,14z"/><path fill="#d9eeff" d="M65.5,89.5h-31c-2.209,0-4,0.825-4-1.857V84h39v3.643C69.5,90.325,67.709,89.5,65.5,89.5z"/><path fill="none" stroke="#40396e" stroke-linecap="round" stroke-linejoin="round" stroke-miterlimit="10" stroke-width="3" d="M72.449,22.081L67.5,15.5l0,0c1.657,0,3-1.343,3-3s-1.343-3-3-3h-35c-1.657,0-3,1.343-3,3s1.343,3,3,3l0,0l-4.917,6.466 c-1.363,2.249-2.083,4.829-2.083,7.459v46.115V81.5c0,2.209,1.791,4,4,4h1l0,0c0,2.209,1.791,4,4,4h31c2.209,0,4-1.791,4-4l0,0h1 c2.209,0,4-1.791,4-4v-6.635V29.487C74.5,26.878,73.791,24.318,72.449,22.081z"/><polygon fill="#ffc571" points="37.833,51.154 55,28.987 53,50"/><polygon fill="#ffc571" points="62.167,48.846 45,71.013 47,50"/></svg>