<svg xmlns="http://www.w3.org/2000/svg" baseProfile="basic" viewBox="0 0 100 100"><path d="M11.438,68.413c-1.218,1.519-1.694,3.479-1.313,5.353c1.638,8.228,8.207,12.646,13.792,14.033	c0.512,0.129,1.029,0.191,1.582,0.191h43c0.553,0,1.07-0.063,1.565-0.188c5.602-1.392,12.171-5.81,13.804-14.014	c0.387-1.897-0.09-3.857-1.352-5.431c-0.689-0.836-1.561-1.475-2.533-1.876C88.472,62.206,98,55.555,98,43.99	c0-10.343-6.727-16.246-14.051-17.321C83.983,25.61,84,24.55,84,23.49c0-3.584-2.916-6.5-6.5-6.5h-60c-3.584,0-6.5,2.916-6.5,6.5	c0,20.523,4.175,33.107,9.6,42.5h-4.1C14.553,65.99,12.724,66.854,11.438,68.413z" opacity=".35"/><path fill="#f2f2f2" d="M9.438,66.413c-1.218,1.519-1.694,3.479-1.313,5.353c1.638,8.228,8.207,12.646,13.792,14.033	c0.512,0.129,1.029,0.191,1.582,0.191h43c0.553,0,1.07-0.063,1.565-0.188c5.602-1.392,12.171-5.81,13.804-14.014	c0.387-1.897-0.09-3.857-1.352-5.431c-0.689-0.836-1.561-1.475-2.533-1.876C86.472,60.206,96,53.555,96,41.99	c0-10.343-6.727-16.246-14.051-17.321C81.983,23.61,82,22.55,82,21.49c0-3.584-2.916-6.5-6.5-6.5h-60c-3.584,0-6.5,2.916-6.5,6.5	c0,20.523,4.175,33.107,9.6,42.5h-4.1C12.553,63.99,10.724,64.854,9.438,66.413z"/><path fill="#ff7575" d="M30.5,71.995h29c0,0,16-18.5,16-50.5h-60C15.5,53.495,30.5,71.995,30.5,71.995z"/><rect width="31" height="3" x="29" y="68.995" fill="#40396e" opacity=".35"/><path fill="#ffe8d9" d="M15,72c1,4.5,5.5,7,8.5,7.495h43C70.5,78.5,74,75.5,75,72H15z"/><path fill="#f4665c" d="M79.5,30.995c-1.706,0-4,0.221-6.027,0.372c-0.313,3.025-0.73,5.896-1.477,9.293	c0,0,2.504-3.666,7.504-3.666c0.938,0,4,0.36,4,5c0,6.254-8.827,9.086-15.542,12.075c-0.951,3.011-2.614,6.404-4.08,8.828	c0,0,1.602,0.203,5.135-1.409C77.133,57.785,89.5,52.398,89.5,41.995C89.5,34.437,84.316,30.995,79.5,30.995z"/><path fill="#40396e" d="M66.5,80.994h-43c-0.122,0-0.243-0.015-0.361-0.044c-4.11-1.021-8.924-4.228-10.109-10.162	c-0.088-0.44,0.026-0.897,0.311-1.245c0.285-0.348,0.711-0.549,1.16-0.549h13.445C20.638,59.279,14,46.92,14,21.494	c0-0.828,0.672-1.5,1.5-1.5h60c0.828,0,1.5,0.672,1.5,1.5c0,2.745-0.123,5.533-0.367,8.316c0.942-0.211,1.9-0.316,2.867-0.316	c5.539,0,11.5,3.912,11.5,12.5c0,11.379-12.866,17.088-21.38,20.865l0,0c-1.19,0.528-2.198,0.978-3.061,1.387	c-1.091,1.878-2.63,3.44-3.995,4.748H75.5c0.449,0,0.875,0.201,1.16,0.549c0.284,0.348,0.398,0.805,0.311,1.245	c-1.186,5.935-5.999,9.141-10.109,10.162C66.743,80.979,66.622,80.994,66.5,80.994z M23.689,77.994h42.621	c2.725-0.724,5.794-2.645,7.178-6H59.001c-0.56,0-1.073-0.312-1.331-0.81c-0.259-0.497-0.218-1.096,0.104-1.554	c0.484-0.688,1.261-1.424,2.158-2.274c1.431-1.356,3.211-3.043,4.22-4.956c0.149-0.282,0.385-0.51,0.672-0.649	c0.996-0.483,2.16-1.004,3.579-1.634l0,0C76.207,56.655,88,51.423,88,41.994c0-6.563-4.27-9.5-8.5-9.5	c-1.364,0-2.712,0.274-4.007,0.816c-0.49,0.205-1.053,0.137-1.479-0.184c-0.425-0.318-0.65-0.838-0.592-1.366	c0.327-2.923,0.516-5.864,0.564-8.767H17.008c0.277,25.572,7.635,37.033,15.168,46.57c0.356,0.451,0.424,1.066,0.173,1.584	c-0.25,0.517-0.774,0.846-1.35,0.846H16.512C17.896,75.35,20.965,77.271,23.689,77.994z M69.279,56.293	c-0.376,0-0.747-0.142-1.031-0.411c-0.444-0.421-0.589-1.069-0.364-1.639c1.789-4.543,3.207-9.295,4.213-14.122	c0.049-0.232,0.151-0.45,0.301-0.636c2.134-2.648,4.523-3.991,7.103-3.991c2.537,0,5.5,1.702,5.5,6.5	c0,6.391-7.632,10.746-15.097,14.163C69.703,56.248,69.491,56.293,69.279,56.293z M74.957,41.097	c-0.774,3.642-1.775,7.238-2.986,10.739C77.154,49.199,82,45.886,82,41.994c0-2.893-1.359-3.5-2.5-3.5	C77.93,38.494,76.44,39.347,74.957,41.097z"/></svg>