<svg xmlns="http://www.w3.org/2000/svg" viewBox="0 0 100 100"><g id="Слой_2"><path d="M81.826,35.05c0.1-1.06,0.142-1.846,0.131-2.498c-0.052-2.998-1.418-5.049-4.062-6.096C77.126,26.153,76.322,26,75.5,26 H59.329c0.01-1.36-0.399-2.685-1.194-3.793c0.7-1.228,1.1-2.612,1.161-4.074c0.155-3.752-1.888-7.181-3.875-9.167 c-1.24-1.284-2.963-2.018-4.75-2.018c-1.548,0-3.002,0.563-4.148,1.501c-1.173-0.96-2.653-1.501-4.183-1.501 c-1.549,0-3.003,0.563-4.149,1.502c-1.173-0.961-2.654-1.502-4.184-1.502c-2.688,0-5.123,1.656-6.078,4.128 c-0.826,2.102-0.525,4.444,0.746,6.233c-0.655,1.117-1.213,2.615-1.213,4.53c0,1.181,0.321,2.671,0.924,4.161H10.5 c-3.524,0-6.377,2.758-6.496,6.279C3.963,33.453,3.242,59.74,17.918,77.79C15.797,80.899,14,84.665,14,88.5 c0,3.584,2.916,6.5,6.5,6.5h45c3.584,0,6.5-2.916,6.5-6.5c0-3.941-1.89-7.803-4.093-10.967c0.646-0.838,1.269-1.699,1.869-2.617 c8.636-0.455,15.54-2.747,20.55-6.829C95.275,64.055,98,58.519,98,52.5C98,43.296,90.859,35.729,81.826,35.05z" opacity=".35"/><path fill="#f2f2f2" d="M79.826,33.05c0.1-1.06,0.142-1.846,0.131-2.498c-0.052-2.998-1.418-5.049-4.062-6.096 C75.126,24.153,74.322,24,73.5,24H57.329c0.01-1.36-0.399-2.685-1.194-3.793c0.7-1.228,1.1-2.612,1.161-4.074 c0.155-3.752-1.888-7.181-3.875-9.167c-1.24-1.284-2.963-2.018-4.75-2.018c-1.548,0-3.002,0.563-4.148,1.501 c-1.173-0.96-2.653-1.501-4.183-1.501c-1.549,0-3.003,0.563-4.149,1.502c-1.173-0.961-2.654-1.502-4.184-1.502 c-2.688,0-5.123,1.656-6.078,4.128c-0.826,2.102-0.525,4.444,0.746,6.233c-0.655,1.117-1.213,2.615-1.213,4.53 c0,1.181,0.321,2.671,0.924,4.161H8.5c-3.524,0-6.377,2.758-6.496,6.279C1.963,31.453,1.242,57.74,15.918,75.79 C13.797,78.899,12,82.665,12,86.5c0,3.584,2.916,6.5,6.5,6.5h45c3.584,0,6.5-2.916,6.5-6.5c0-3.941-1.89-7.803-4.093-10.967 c0.646-0.838,1.269-1.699,1.869-2.617c8.636-0.455,15.54-2.747,20.55-6.829C93.275,62.055,96,56.519,96,50.5 C96,41.296,88.859,33.729,79.826,33.05z"/><path fill="#a6d7ff" d="M78.5,39.5c-1.666,0-3.847,0.372-6.135,1.035C73.698,30.226,73.5,30.5,73.5,30.5h-65c0,0-1,29,16,45 c0,0-6,6.076-6,11h45c0-4.924-6-11-6-11c2.552-3.002,4.69-5.414,6.495-9.037c0.163,0.022,0.33,0.037,0.505,0.037 c20,0,25-9.925,25-16S84.575,39.5,78.5,39.5z M66.631,60.427c2.176-5.689,3.669-7.623,4.689-13.187 c2.446-0.995,5.163-1.74,7.18-1.74c2.757,0,5,2.243,5,5C83.5,50.634,83.013,59.4,66.631,60.427z"/><path fill="#96c362" d="M57,76H25l-3.71-5.193c-4.157-5.819-7.181-12.368-8.915-19.306L11,46h60C71,46,64,66,57,76L57,76z"/><path fill="#40396e" d="M51.854,22.879c-0.529-0.533-1.602-1.963-1.602-3.041c0-0.364,0.096-0.492,0.584-0.979 c2.926-2.44,0.882-6.554-0.988-8.395c-0.794-0.859-2.212-0.596-2.596,0.427c-0.23,0.571-0.119,1.265,0.321,1.71 c0.815,0.856,1.636,2.138,1.636,3.068c0,0.364-0.096,0.492-0.584,0.979c-0.597,0.598-1.499,1.5-1.499,3.19 c0,2.075,2.107,5.731,3.646,5.731C52.149,25.616,52.863,23.781,51.854,22.879z"/><path fill="#40396e" d="M43.523,22.879c-0.529-0.534-1.602-1.963-1.602-3.041c0-0.364,0.096-0.492,0.584-0.979 c2.926-2.44,0.882-6.554-0.988-8.395c-0.794-0.859-2.212-0.596-2.596,0.427c-0.23,0.571-0.119,1.265,0.321,1.71 c0.815,0.857,1.636,2.139,1.636,3.069c0,0.364-0.096,0.492-0.584,0.979c-0.597,0.597-1.499,1.499-1.499,3.19 c0,2.075,2.107,5.731,3.646,5.731C43.818,25.616,44.533,23.781,43.523,22.879z"/><path fill="#40396e" d="M35.19,22.879c-0.529-0.534-1.602-1.963-1.602-3.041c0-0.364,0.096-0.492,0.584-0.979 c2.926-2.44,0.882-6.554-0.988-8.395c-0.794-0.859-2.212-0.596-2.596,0.427c-0.23,0.571-0.119,1.265,0.321,1.71 c0.815,0.857,1.636,2.139,1.636,3.069c0,0.364-0.096,0.492-0.584,0.979c-0.597,0.597-1.499,1.499-1.499,3.19 c0,2.075,2.107,5.731,3.646,5.731C35.485,25.616,36.199,23.781,35.19,22.879z"/><polygon fill="#70bfff" points="64,86 19,86 24,76 60,76"/><path fill="#40396e" d="M63.5,88h-45c-0.828,0-1.5-0.672-1.5-1.5c0-4.181,3.596-8.849,5.414-10.941 C6.207,59.132,6.96,31.635,7.001,30.448C7.028,29.641,7.691,29,8.5,29h65c0.189,0,0.378,0.035,0.554,0.104 c1.151,0.456,1.232,0.488,0.082,9.435C75.754,38.188,77.257,38,78.5,38C85.393,38,91,43.607,91,50.5 c0,8.02-6.849,17.375-26.111,17.499c-1.571,2.916-3.359,5.079-5.387,7.464C61.291,77.506,65,82.254,65,86.5 C65,87.328,64.328,88,63.5,88z M20.207,85h41.586c-0.841-3.282-4.022-7.089-5.361-8.446c-0.545-0.554-0.578-1.434-0.074-2.025 l0.467-0.548c2.355-2.766,4.216-4.95,5.828-8.187c0.287-0.576,0.91-0.898,1.548-0.817C64.297,64.99,64.396,65,64.5,65 C81.846,65,88,57.188,88,50.5c0-5.238-4.262-9.5-9.5-9.5c-1.516,0-3.546,0.347-5.717,0.976c-0.486,0.142-1.01,0.027-1.395-0.302 c-0.384-0.329-0.576-0.829-0.511-1.331c0.596-4.607,0.879-7.051,1.013-8.343H9.997c0.086,5.987,1.363,29.073,15.531,42.407 c0.294,0.277,0.464,0.661,0.471,1.064c0.008,0.404-0.147,0.794-0.431,1.082C24.229,77.911,21.048,81.718,20.207,85z M66.631,61.927c-0.476,0-0.925-0.226-1.208-0.611c-0.303-0.411-0.375-0.948-0.193-1.425c0.702-1.834,1.336-3.29,1.896-4.574 c1.192-2.738,2.054-4.716,2.72-8.347c0.093-0.504,0.436-0.926,0.91-1.119C73.646,44.675,76.469,44,78.5,44 c3.584,0,6.5,2.916,6.5,6.5c0,0.103-0.209,10.292-18.275,11.424C66.693,61.926,66.662,61.927,66.631,61.927z M72.636,48.336 c-0.708,3.466-1.623,5.567-2.761,8.178c-0.293,0.675-0.608,1.398-0.942,2.198c12.466-1.515,13.05-7.987,13.069-8.278 C82,48.57,80.43,47,78.5,47C77.029,47,74.879,47.493,72.636,48.336z"/><circle cx="29" cy="58" r="4" fill="#739f4d"/><circle cx="52" cy="56" r="3" fill="#739f4d"/><circle cx="45.5" cy="66.5" r="5.5" fill="#739f4d"/></g></svg>