<svg xmlns="http://www.w3.org/2000/svg" viewBox="0 0 100 100"><path d="M32.045,97c-1.24,0-2.449-0.353-3.495-1.02C27.913,95.574,13,85.855,13,68.5 c0-7.994,2.754-14.263,5.184-19.795C20.231,44.042,22,40.016,22,35.5c0-4.913-4.728-13.102-7.707-17.109 c-1.268-1.693-1.631-3.91-0.967-5.925c0.664-2.016,2.275-3.583,4.31-4.192c0.496-0.15,3.271-0.923,7.682-0.923 c4.753,0,12.271,0.926,21.09,5.335c5.7,2.85,11.115,4.295,16.093,4.295c4.378,0,6.849-1.171,6.948-1.22 C70.403,15.258,71.446,15,72.5,15c1.478,0,2.926,0.51,4.076,1.438c2.07,1.666,2.914,4.388,2.148,6.933 c-0.571,1.908-1.161,4.105-1.646,6.13C89.719,29.507,100,39.792,100,52.434c0,9.178-6.385,20.32-16.196,24.179 C80.51,87.843,71.499,94.875,70.4,95.7c-1.118,0.838-2.503,1.3-3.9,1.3H32.045z" opacity=".35"/><path fill="#f2f2f2" d="M30.045,95c-1.24,0-2.449-0.353-3.495-1.02C25.913,93.574,11,83.855,11,66.5 c0-7.994,2.754-14.263,5.184-19.795C18.231,42.042,20,38.016,20,33.5c0-4.913-4.728-13.102-7.707-17.109 c-1.268-1.693-1.631-3.91-0.967-5.925c0.664-2.016,2.275-3.583,4.31-4.192c0.496-0.15,3.271-0.923,7.682-0.923 c4.753,0,12.271,0.926,21.09,5.335c5.7,2.85,11.115,4.295,16.093,4.295c4.378,0,6.849-1.171,6.948-1.22 C68.403,13.258,69.446,13,70.5,13c1.478,0,2.926,0.51,4.076,1.438c2.07,1.666,2.914,4.388,2.148,6.933 c-0.571,1.908-1.161,4.105-1.646,6.13C87.719,27.507,98,37.792,98,50.434c0,9.178-6.385,20.32-16.196,24.179 C78.51,85.843,69.499,92.875,68.4,93.7c-1.118,0.838-2.503,1.3-3.9,1.3H30.045z"/><path fill="#70bfff" d="M91.5,50.434C91.5,41.372,84.128,34,75.066,34c-2.69,0-5.223,0.662-7.467,1.813 c-0.065-0.74-0.099-1.509-0.099-2.313c0-4,3-14,3-14s-10.889,6.055-29-3c-14-7-24-4-24-4s9,12,9,21c0,12-9,20-9,33 c0,14,12.545,22,12.545,22H64.5c0,0,10.241-7.689,11.796-19.115C84.855,68.231,91.5,58.542,91.5,50.434z M76.365,63.258 c-0.805-9.715-5.118-14.653-7.418-21.256C70.668,40.749,72.779,40,75.066,40C80.819,40,85.5,44.681,85.5,50.434 C85.5,55.597,81.373,61.987,76.365,63.258z"/><path fill="#d9eeff" d="M30.51,87C28.563,85.617,19,78.22,19,66.5c0-5.484,1.695-10.086,3.819-15h48.766 c1.404,3.043,2.827,6.708,3.268,11.688C75,64,75.148,68.333,74.959,68.705c-0.076,0.149-0.127,0.311-0.149,0.478 C73.525,78.623,65.781,85.509,63.975,87H30.51z"/><path fill="none" stroke="#40396e" stroke-linecap="round" stroke-linejoin="round" stroke-miterlimit="10" stroke-width="3" d="M91.5,50.434C91.5,41.372,84.128,34,75.066,34c-2.69,0-5.223,0.662-7.467,1.813c-0.065-0.74-0.099-1.509-0.099-2.313c0-4,3-14,3-14 s-10.889,6.055-29-3c-14-7-24-4-24-4s9,12,9,21c0,12-9,20-9,33c0,14,12.545,22,12.545,22H64.5c0,0,10.241-7.689,11.796-19.115 C84.855,68.231,91.5,58.542,91.5,50.434z M76.365,63.258c-0.805-9.715-5.118-14.653-7.418-21.256 C70.668,40.749,72.779,40,75.066,40C80.819,40,85.5,44.681,85.5,50.434C85.5,55.597,81.373,61.987,76.365,63.258z"/><path fill="none" stroke="#fff" stroke-linecap="round" stroke-linejoin="round" stroke-miterlimit="10" stroke-width="3" d="M32.751,80.5c-2.548-2.207-7.251-7.2-7.251-14c0-4.951,1.835-9.128,3.96-13.965C31.822,47.156,34.5,41.06,34.5,33.5 c0-4.138-1.227-8.447-2.856-12.348"/></svg>