<svg xmlns="http://www.w3.org/2000/svg" viewBox="0 0 100 100"><path d="M36,99c-3.03,0-5.7-2.148-6.349-5.107c-0.651-2.957,0.875-6.026,3.627-7.295l9.222-4.257L43,79 c-6.224-4.895-16.5-14.739-16.5-47.5c0-3.009,2.055-5.547,4.836-6.284c0.258-0.639,0.573-1.254,0.94-1.837l-4.611-6.688 c-1.949-2.827-1.356-6.697,1.35-8.812l4.492-3.51c1.141-0.89,2.562-1.377,4.004-1.377c0.321,0,0.646,0.024,0.963,0.071 c1.786,0.275,1.377,1.273,2.388,2.741l4.695,6.81C46.819,12.21,50.147,12,51.5,12c0.783,0,1.564,0.072,2.333,0.212 c0.127-0.303,0.23-0.64,0.31-1.014c0.575-2.695,2.795-4.742,5.526-5.094c0.274-0.036,0.554-0.054,0.833-0.054 c2.47,0,4.694,1.371,5.805,3.578c0.458,0.915,2.383,4.987,2.776,9.59c1.854,1.619,3.201,3.727,3.892,6.087 c2.622,0.837,4.526,3.297,4.526,6.194c0,32.777-9.774,43.682-16,48.571v2.27l9.224,4.258c2.75,1.268,4.276,4.337,3.625,7.297 C73.7,96.852,71.03,99,68,99H36z" opacity=".35"/><path fill="#f2f2f2" d="M34,97c-3.03,0-5.7-2.148-6.349-5.107c-0.651-2.957,0.875-6.026,3.627-7.295l9.222-4.257v-2.274 c-6.224-4.895-16-15.806-16-48.567c0-3.009,2.055-5.547,4.836-6.284c0.258-0.639,0.573-1.254,0.94-1.837l-4.611-6.688 c-1.949-2.827-1.356-6.697,1.35-8.812l4.492-3.51c1.141-0.89,2.562-1.377,4.004-1.377c0.321,0,0.646,0.024,0.963,0.071 c1.786,0.275,3.377,1.273,4.388,2.741l4.695,6.81C46.819,10.21,48.147,10,49.5,10c0.783,0,1.564,0.072,2.333,0.212 c0.127-0.303,0.23-0.64,0.31-1.014c0.575-2.695,2.795-4.742,5.526-5.094c0.274-0.036,0.554-0.054,0.833-0.054 c2.47,0,4.694,1.371,5.805,3.578c0.458,0.915,2.383,4.987,2.776,9.59c1.854,1.619,3.201,3.727,3.892,6.087 c2.622,0.837,4.526,3.297,4.526,6.194c0,32.777-9.774,43.682-16,48.571v2.27l9.224,4.258c2.75,1.268,4.276,4.337,3.625,7.297 C71.7,94.852,69.03,97,66,97H34z"/><polygon fill="#ff7575" points="39.831,24.933 39.115,23.182 42.905,17.729 45.136,20.996"/><path fill="#fff" d="M63.77,30.124l-0.654-1.202c0.323-0.773,0.444-1.604,0.357-2.457 c-0.208-2.029-1.724-3.689-3.671-4.298l0.075-0.807l-0.894-0.904c0.416-1.783,0.036-3.933-0.482-5.709 c-1.305,2.236-3.081,3.542-4.565,4.293l-0.8,0.078l-0.625-0.107c-0.666-0.473-1.419-0.849-2.229-0.952 c-2.26-0.271-3.701,0.448-4.557,1.644c-0.67,0.935-1.066,1.909-3.11,3.287c-3.24,1.585-3.322,0.493-4.97,1.986 c-0.464,0.42-0.84,0.95-1.008,1.552c-0.226,0.808-0.168,1.618,0.161,2.371C37.229,29.89,36.503,31,35.422,31h32.071L63.77,30.124z"/><path fill="#70bfff" d="M51.5,82.774l2-8.774l-1.024-0.905c0.01-0.004,0.084-0.034,0.209-0.095h-5.358 c0.121,0.062,0.192,0.092,0.201,0.096L47.5,73l1,9.774c0,1.637-0.952,3.125-2.438,3.811L40.83,89H59.17l-5.232-2.415 C52.452,85.899,51.5,84.412,51.5,82.774z"/><path fill="#ff7575" d="M47.527,73.096L47.527,73.096c1.458,1.122,3.489,1.122,4.947,0.001l0.002-0.002 C52.624,73.039,67.123,69.19,67.493,31H32.507C32.507,69.09,47.391,73.042,47.527,73.096z"/><path fill="#ffe8d9" d="M48.045,73.43C48.34,59.682,50,33.5,50,33.5s1.634,26.91,1.948,39.935 C50.733,74.101,49.259,74.099,48.045,73.43z M38,34c-0.089,6.236-0.353,14.72,0.835,23.758c0.959,7.289,1.205,8.37,2.572,13.87 L44,71C42.06,65.268,39.007,41.056,38,34z M55.912,71l2.592,0.628c1.368-5.5,1.614-6.581,2.572-13.87 C62.265,48.72,62,40.236,61.912,34C60.905,41.056,57.852,65.268,55.912,71z"/><g><polygon fill="#ff7575" points="36.817,18.746 35.278,16.171 39.096,10.747 40.635,13.322"/></g><path fill="none" stroke="#40396e" stroke-linecap="round" stroke-linejoin="round" stroke-miterlimit="10" stroke-width="3" d="M53,74.5c0,0,16-3.966,16-45c0,0-3.56,0-4.5,0c0.321-0.77,0.5-1.614,0.5-2.5c0-2.913-1.916-5.378-4.557-6.204 c1.016-4.359-1.943-10.245-1.943-10.245c-0.893,4.198-3.376,6.206-5.243,7.151C52.195,16.948,50.901,16.5,49.5,16.5 c-2.378,0-4.451,1.281-5.585,3.186L35.508,7.491L31.017,11l7.996,11.599C36.725,23.058,35,25.077,35,27.5 c0,0.712,0.154,1.387,0.422,2c-0.909,0-4.422,0-4.422,0c0,41,16,45,16,45v10l-13,6h32l-13-6V74.5z"/></svg>