<svg xmlns="http://www.w3.org/2000/svg" viewBox="0 0 100 100"><g id="Слой_2"><path d="M82.883,29.577l-9.884-10.706C72.93,12.865,68.022,8,62,8H41c-6.065,0-11,4.935-11,11v0.28l-8.342,10.843 C20.588,31.517,20,33.248,20,35v45c0,7.168,5.832,13,13,13h39c7.168,0,13-5.832,13-13V35C85,32.986,84.248,31.06,82.883,29.577z" opacity=".35"/><path fill="#f2f2f2" d="M80.883,27.577l-9.884-10.706C70.93,10.865,66.022,6,60,6H39c-6.065,0-11,4.935-11,11v0.28l-8.342,10.843 C18.588,29.517,18,31.248,18,33v45c0,7.168,5.832,13,13,13h39c7.168,0,13-5.832,13-13V33C83,30.986,82.248,29.06,80.883,27.577z"/><polygon fill="#2b59a1" points="67,24.333 67,20 63,20 51,33 63,33 67,33 75,33"/><path fill="#2785bd" d="M51,83H31c-2.761,0-5-2.239-5-5V33l10-13h27L51,33V83z"/><polygon fill="#70bfff" points="25,33 51,33 63,20 35,20"/><path fill="#2785bd" d="M61,14H38c-1.657,0-3,1.343-3,3v3h29v-3C64,15.343,62.657,14,61,14z"/><path fill="#2785bd" d="M75,33H51v50h19c2.761,0,5-2.239,5-5V33z"/><path fill="#40396e" d="M75,33H51v50h19c2.761,0,5-2.239,5-5V33z" opacity=".35"/><path fill="#d9eeff" d="M75,77.24c-1.579-0.486-3.582-3.462-4-4.24c-7.363-13.696-16.134-12.264-20-12.208V83h19 c2.761,0,5-2.239,5-5V77.24z"/><path fill="#fff" d="M51,60.792c-0.173,0.003-0.34,0.007-0.491,0.016c-1.273,0.072-2.548-0.085-3.78-0.413l-0.467-0.125 c-1.915-0.51-3.251-2.24-3.261-4.222L43,56v-4h-0.051C42.44,45.842,37.29,41,31,41c-1.788,0-3.477,0.402-5,1.104V78 c0,2.761,2.239,5,5,5h20V60.792z"/><path fill="#40396e" d="M70,86H31c-4.411,0-8-3.589-8-8V33c0-0.657,0.221-1.307,0.621-1.828L33,18.98V17c0-3.309,2.691-6,6-6h21 c3.309,0,6,2.691,6,6v1.827l11.205,12.138l0,0C77.718,31.521,78,32.243,78,33v45C78,82.411,74.411,86,70,86z M39,14 c-1.654,0-3,1.346-3,3v2.49c0,0.331-0.109,0.652-0.312,0.915l-9.689,12.596L26,78c0,2.757,2.243,5,5,5h39c2.757,0,5-2.243,5-5V33 L63.397,20.432C63.142,20.154,63,19.791,63,19.414V17c0-1.654-1.346-3-3-3H39z"/></g></svg>