<svg xmlns="http://www.w3.org/2000/svg" viewBox="0 0 100 100"><path d="M69.5,95c-4.121,0-8.134-0.916-11.778-2.646C56.528,93.96,54.617,95,52.5,95h-30 c-3.359,0-6.206-2.624-6.479-5.973l-6-72.002c-0.147-1.801,0.472-3.601,1.701-4.933C12.952,10.762,14.692,10,16.5,10h42 c1.812,0,3.554,0.765,4.781,2.097c1.227,1.332,1.845,3.13,1.697,4.935l-1.214,12.591c0.854-0.402,1.795-0.614,2.766-0.614 c1.752,0,3.455,0.722,4.673,1.981c0.187,0.192,0.369,0.389,0.549,0.588C75.769,27.939,81.154,26,87.5,26 c1.738,0,3.372,0.677,4.601,1.908c1.211,1.213,1.903,2.893,1.899,4.606c-0.002,1.064-0.178,9.036-4.739,15.86 C94.178,53.453,97,60.289,97,67.5C97,82.664,84.663,95,69.5,95z" opacity=".35"/><path fill="#f2f2f2" d="M67.5,93c-4.121,0-8.134-0.916-11.778-2.646C54.528,91.96,52.617,93,50.5,93h-30 c-3.359,0-6.206-2.624-6.479-5.973l-6-72.002c-0.147-1.801,0.472-3.601,1.701-4.933C10.952,8.762,12.692,8,14.5,8h42 c1.812,0,3.554,0.765,4.781,2.097c1.227,1.332,1.845,3.13,1.697,4.935l-1.214,12.591c0.854-0.402,1.795-0.614,2.766-0.614 c1.752,0,3.455,0.722,4.673,1.981c0.187,0.192,0.369,0.389,0.549,0.588C73.769,25.939,79.154,24,85.5,24 c1.738,0,3.372,0.677,4.601,1.908c1.211,1.213,1.903,2.893,1.899,4.606c-0.002,1.064-0.178,9.036-4.739,15.86 C92.178,51.453,95,58.289,95,65.5C95,80.664,82.663,93,67.5,93z"/><path fill="#ef8630" d="M88.5,65.5c0,12.012-9.738,21.75-21.75,21.75S45,77.512,45,65.5s9.738-21.75,21.75-21.75 c3.441,0,7.323,0.305,10.215,1.728C84.17,49.022,88.5,56.929,88.5,65.5z"/><path fill="#96c362" d="M70.021,47.942c0.14-2.595,0.779-8.944,4.361-12.706c2.311-2.429,5.764-3.438,9.527-3.18 C83.514,36.188,81.392,47.052,70.021,47.942z"/><polygon fill="#70bfff" points="21.549,85.404 21.354,78.434 16.123,16 54.877,16 51.862,49.999 49.629,78.433 49.293,85.166"/><polygon fill="#40396e" points="53,79 51.068,79.307 49.636,78.384 51.587,47.881 55.568,48.275" opacity=".35"/><polygon fill="#f9b84f" points="49.636,78.434 51.865,50 54.461,28 17.104,28 21.304,78.434"/><path fill="none" stroke="#40396e" stroke-linecap="round" stroke-linejoin="round" stroke-miterlimit="10" stroke-width="3" d="M77.55,47.059C85.484,41.931,85.5,30.5,85.5,30.5c-12.001,0-15.552,8.441-16.589,14.071C68.443,44.54,67.976,44.5,67.5,44.5 c-5.443,0-10.386,2.089-14.117,5.485L56.5,14.5h-42l6,72h30l0.622-7.874C54.97,83.422,60.872,86.5,67.5,86.5 c11.598,0,21-9.402,21-21C88.5,57.543,84.074,50.622,77.55,47.059z"/><path fill="none" stroke="#fff" stroke-linecap="round" stroke-linejoin="round" stroke-miterlimit="10" stroke-width="3" d="M28.036,80.454L23.175,20.5"/><path fill="none" stroke="#40396e" stroke-linecap="round" stroke-linejoin="round" stroke-miterlimit="10" stroke-width="3" d="M64.531,33.509c1.86,1.922,4.641,5.922,5.183,12.984"/><circle cx="70" cy="69" r="2" fill="#e66f2e"/><circle cx="77" cy="64" r="2" fill="#e66f2e"/><circle cx="77" cy="74" r="2" fill="#e66f2e"/></svg>