<svg xmlns="http://www.w3.org/2000/svg" viewBox="0 0 100 100"><circle cx="63" cy="19" r="10" fill="#d1d1d1"/><path fill="#d1d1d1" d="M34,97c-3.342,0-6.122-2.507-6.466-5.831l-6.5-63.002c-0.188-1.827,0.409-3.655,1.637-5.019 C23.905,21.782,25.664,21,27.5,21h12.959c1.277-4.053,5.071-7,9.541-7s8.263,2.947,9.541,7H76.5c1.836,0,3.595,0.782,4.826,2.146 c1.231,1.366,1.828,3.194,1.64,5.02l-6.5,63.002C76.122,94.493,73.342,97,70,97H34z"/><path fill="#f2f2f2" d="M32,95c-3.342,0-6.122-2.507-6.466-5.831l-6.5-63.002c-0.188-1.827,0.409-3.655,1.637-5.019 C21.905,19.782,23.664,19,25.5,19h12.959c1.277-4.053,5.071-7,9.541-7s8.263,2.947,9.541,7H74.5c1.836,0,3.595,0.782,4.826,2.146 c1.231,1.366,1.828,3.194,1.64,5.02l-6.5,63.002C74.122,92.493,71.342,95,68,95H32z"/><circle cx="61" cy="17" r="10" fill="#f2f2f2"/><circle cx="53" cy="12" r="10" fill="#f2f2f2"/><circle cx="51" cy="10" r="10" fill="#f2f2f2"/><polygon fill="#d9eeff" points="33.357,87 27.158,27 72.842,27 66.643,87"/><polygon fill="#70bfff" points="28.358,39 33.357,87 66.643,87 71.642,39"/><line x1="37.489" x2="32.058" y1="82.5" y2="31.5" fill="none" stroke="#fff" stroke-linecap="round" stroke-linejoin="round" stroke-miterlimit="10" stroke-width="3"/><polygon fill="none" stroke="#40396e" stroke-linecap="round" stroke-linejoin="round" stroke-miterlimit="10" stroke-width="3" points="74.5,25.5 25.5,25.5 32,88.5 68,88.5"/><circle cx="46.5" cy="59.5" r="2.5" fill="#d9eeff"/><circle cx="58.5" cy="65.5" r="2.5" fill="#d9eeff"/><circle cx="49.5" cy="45.5" r="2.5" fill="#d9eeff"/><circle cx="59.5" cy="51.5" r="2.5" fill="#d9eeff"/><circle cx="48.5" cy="73.5" r="2.5" fill="#d9eeff"/><circle cx="48" cy="22" r="3.5" fill="#70bfff"/><circle cx="61" cy="17" r="3.5" fill="#70bfff"/><circle cx="51" cy="10" r="3.5" fill="#70bfff"/><circle cx="48" cy="22" r="3.5" fill="none" stroke="#40396e" stroke-linecap="round" stroke-linejoin="round" stroke-miterlimit="10" stroke-width="3"/><circle cx="61" cy="17" r="3.5" fill="none" stroke="#40396e" stroke-linecap="round" stroke-linejoin="round" stroke-miterlimit="10" stroke-width="3"/><circle cx="51" cy="10" r="3.5" fill="none" stroke="#40396e" stroke-linecap="round" stroke-linejoin="round" stroke-miterlimit="10" stroke-width="3"/></svg>