<svg xmlns="http://www.w3.org/2000/svg" viewBox="0 0 100 100"><path fill="#d1d1d1" d="M20.5,97c-3.584,0-6.5-2.916-6.5-6.5v-27C14,57.159,19.159,52,25.5,52h6.106 c0.003-0.008,0.006-0.017,0.009-0.024c-1.67-2.21-2.815-4.796-3.321-7.523C26.892,43.259,26,41.481,26,39.5v-6 c0-1.745,0.691-3.331,1.813-4.5C26.691,27.831,26,26.245,26,24.5v-6c0-1.839,0.768-3.503,2-4.687V11.5C28,7.916,30.916,5,34.5,5h35 c3.584,0,6.5,2.916,6.5,6.5v2.313c1.232,1.184,2,2.848,2,4.687v6c0,1.745-0.691,3.331-1.813,4.5C77.309,30.169,78,31.755,78,33.5v6 c0,1.981-0.892,3.759-2.294,4.952c-0.506,2.728-1.651,5.313-3.321,7.523c0.003,0.008,0.006,0.017,0.009,0.024H78.5 C84.841,52,90,57.159,90,63.5v27c0,3.584-2.916,6.5-6.5,6.5H20.5z"/><path fill="#f2f2f2" d="M18.5,95c-3.584,0-6.5-2.916-6.5-6.5v-27C12,55.159,17.159,50,23.5,50h6.106 c0.003-0.008,0.006-0.017,0.009-0.024c-1.67-2.21-2.815-4.796-3.321-7.523C24.892,41.259,24,39.481,24,37.5v-6 c0-1.745,0.691-3.331,1.813-4.5C24.691,25.831,24,24.245,24,22.5v-6c0-1.839,0.768-3.503,2-4.687V9.5C26,5.916,28.916,3,32.5,3h35 C71.084,3,74,5.916,74,9.5v2.313c1.232,1.184,2,2.848,2,4.687v6c0,1.745-0.691,3.331-1.813,4.5C75.309,28.169,76,29.755,76,31.5v6 c0,1.981-0.892,3.759-2.294,4.952c-0.506,2.728-1.651,5.313-3.321,7.523c0.003,0.008,0.006,0.017,0.009,0.024H76.5 C82.841,50,88,55.159,88,61.5v27c0,3.584-2.916,6.5-6.5,6.5H18.5z"/><path fill="#d9eeff" d="M78.506,56.5H64.5v-3c0-2.1-1.624-3.803-3.682-3.968c3.934-1.747,6.682-5.681,6.682-10.262V37.5h2 v-6h-2v-9h2v-6h-2v-7h-35v7h-2v6h2v9h-2v6h2v1.77c0,4.582,2.748,8.516,6.682,10.262C37.124,49.697,35.5,51.4,35.5,53.5v3H21.034 c-1.399,0-2.534,1.134-2.534,2.534V88.5h63V59.494C81.5,57.841,80.159,56.5,78.506,56.5z"/><path fill="#70bfff" d="M61,51c3.934-1.747,6.5-7.149,6.5-11.73V37.5h2v-6h-2v-9h2v-6h-2v-7h-35v7h-2v6h2v9h-2v6h2v1.77 c0,4.582,2.566,9.984,6.5,11.73C36.942,51.165,63.058,51.165,61,51z"/><rect width="36" height="3" x="32" y="21" fill="#40396e" opacity=".35"/><rect width="36" height="3" x="32" y="15" fill="#40396e" opacity=".35"/><rect width="36" height="3" x="32" y="36" fill="#40396e" opacity=".35"/><rect width="36" height="3" x="32" y="30" fill="#40396e" opacity=".35"/><path fill="#9aa2e6" d="M73,90H27V71c0-2.761,2.239-5,5-5h36c2.761,0,5,2.239,5,5V90z"/><path fill="none" stroke="#40396e" stroke-linecap="round" stroke-linejoin="round" stroke-miterlimit="10" stroke-width="3" d="M76.5,56.5h-12v-3c0-2.1-1.624-3.803-3.682-3.968c3.934-1.747,6.682-5.681,6.682-10.262V37.5h2v-6h-2v-9h2v-6h-2v-7h-35v7h-2v6h2v9 h-2v6h2v1.77c0,4.582,2.748,8.516,6.682,10.262C37.124,49.697,35.5,51.4,35.5,53.5v3h-12c-2.761,0-5,2.239-5,5v27h63v-27 C81.5,58.739,79.261,56.5,76.5,56.5z"/><polygon fill="#d9eeff" points="40,81 37,81 35,73 42,73"/><rect width="11" height="4" x="33" y="71" fill="#ff7575"/><polygon fill="#d9eeff" points="63,81 60,81 58,73 65,73"/><rect width="11" height="4" x="56" y="71" fill="#2785bd"/></svg>